<?xml version="1.0" encoding="UTF-8"?>
<svg xmlns="http://www.w3.org/2000/svg" xmlns:xlink="http://www.w3.org/1999/xlink" width="90px" height="88px" viewBox="0 0 89 88" version="1.1">
<g id="surface1">
<path style=" stroke:none;fill-rule:evenodd;fill:rgb(14.117647%,16.078431%,18.431373%);fill-opacity:1;" d="M 44.367188 0 C 19.832031 0 0 20.167969 0 45.117188 C 0 65.058594 12.707031 81.941406 30.335938 87.914062 C 32.542969 88.363281 33.347656 86.945312 33.347656 85.75 C 33.347656 84.703125 33.277344 81.117188 33.277344 77.382812 C 20.933594 80.074219 18.363281 72.003906 18.363281 72.003906 C 16.378906 66.777344 13.441406 65.433594 13.441406 65.433594 C 9.402344 62.667969 13.734375 62.667969 13.734375 62.667969 C 18.21875 62.96875 20.566406 67.300781 20.566406 67.300781 C 24.535156 74.171875 30.925781 72.230469 33.496094 71.035156 C 33.863281 68.121094 35.039062 66.105469 36.289062 64.984375 C 26.445312 63.9375 16.085938 60.054688 16.085938 42.726562 C 16.085938 37.796875 17.847656 33.761719 20.640625 30.625 C 20.199219 29.503906 18.65625 24.871094 21.082031 18.671875 C 21.082031 18.671875 24.828125 17.476562 33.273438 23.304688 C 36.890625 22.316406 40.621094 21.816406 44.367188 21.808594 C 48.113281 21.808594 51.933594 22.332031 55.457031 23.304688 C 63.90625 17.476562 67.652344 18.671875 67.652344 18.671875 C 70.078125 24.871094 68.535156 29.503906 68.09375 30.625 C 70.957031 33.761719 72.648438 37.796875 72.648438 42.726562 C 72.648438 60.054688 62.289062 63.863281 52.375 64.984375 C 53.992188 66.402344 55.386719 69.09375 55.386719 73.351562 C 55.386719 79.398438 55.3125 84.253906 55.3125 85.75 C 55.3125 86.945312 56.121094 88.363281 58.324219 87.914062 C 75.953125 81.9375 88.660156 65.058594 88.660156 45.117188 C 88.734375 20.167969 68.828125 0 44.367188 0 Z M 44.367188 0 "/>
</g>
</svg>
