<?xml version="1.0" encoding="UTF-8"?>
<!DOCTYPE svg PUBLIC "-//W3C//DTD SVG 1.1//EN" "http://www.w3.org/Graphics/SVG/1.1/DTD/svg11.dtd">
<svg xmlns="http://www.w3.org/2000/svg" version="1.1" width="1024px" height="1024px" style="shape-rendering:geometricPrecision; text-rendering:geometricPrecision; image-rendering:optimizeQuality; fill-rule:evenodd; clip-rule:evenodd" xmlns:xlink="http://www.w3.org/1999/xlink">
<g><path style="opacity:1" fill="#818694" d="M 484.5,127.5 C 615.697,121.873 723.864,168.539 809,267.5C 884.09,362.879 910.423,470.545 888,590.5C 857.735,718.571 782.902,810.071 663.5,865C 576.499,900.501 487.833,905.168 397.5,879C 286.108,842.276 206.274,770.442 158,663.5C 122.499,576.499 117.832,487.833 144,397.5C 180.724,286.108 252.558,206.274 359.5,158C 399.659,141.14 441.326,130.973 484.5,127.5 Z M 376.5,323.5 C 376.973,324.906 377.973,325.573 379.5,325.5C 379.842,326.338 380.508,326.672 381.5,326.5C 382.262,328.262 383.596,329.262 385.5,329.5C 388.5,333.167 391.833,336.5 395.5,339.5C 396.921,342.009 398.588,344.343 400.5,346.5C 400.932,347.71 401.599,348.71 402.5,349.5C 413.136,371.135 413.136,392.802 402.5,414.5C 401.094,414.973 400.427,415.973 400.5,417.5C 399.094,417.973 398.427,418.973 398.5,420.5C 396.413,421.585 395.08,423.251 394.5,425.5C 392.5,426.833 390.833,428.5 389.5,430.5C 387.251,431.08 385.585,432.413 384.5,434.5C 382.973,434.427 381.973,435.094 381.5,436.5C 379.973,436.427 378.973,437.094 378.5,438.5C 376.181,438.992 374.181,439.992 372.5,441.5C 370.421,441.971 368.421,442.637 366.5,443.5C 364.597,443.796 362.93,444.463 361.5,445.5C 345.132,448.923 329.465,446.923 314.5,439.5C 313.71,438.599 312.71,437.932 311.5,437.5C 311.167,437.5 310.833,437.5 310.5,437.5C 309.564,436.026 308.23,435.026 306.5,434.5C 305.564,433.026 304.23,432.026 302.5,431.5C 300.167,428.5 297.5,425.833 294.5,423.5C 294.262,421.596 293.262,420.262 291.5,419.5C 291.573,417.973 290.906,416.973 289.5,416.5C 275.014,390.042 276.681,364.708 294.5,340.5C 295.906,340.027 296.573,339.027 296.5,337.5C 319.975,315.207 346.642,310.54 376.5,323.5 Z M 542.5,323.5 C 542.973,324.906 543.973,325.573 545.5,325.5C 545.842,326.338 546.508,326.672 547.5,326.5C 548.262,328.262 549.596,329.262 551.5,329.5C 552.585,331.587 554.251,332.92 556.5,333.5C 557.167,334.833 558.167,335.833 559.5,336.5C 559.427,338.027 560.094,339.027 561.5,339.5C 563.866,342.857 566.199,346.19 568.5,349.5C 568.932,350.71 569.599,351.71 570.5,352.5C 576.779,367.014 578.446,382.014 575.5,397.5C 574.463,398.93 573.796,400.597 573.5,402.5C 571.836,406.496 570.169,410.496 568.5,414.5C 567.094,414.973 566.427,415.973 566.5,417.5C 565.094,417.973 564.427,418.973 564.5,420.5C 562.738,421.262 561.738,422.596 561.5,424.5C 557.103,428.904 552.436,432.904 547.5,436.5C 545.973,436.427 544.973,437.094 544.5,438.5C 542.181,438.992 540.181,439.992 538.5,441.5C 536.597,441.796 534.93,442.463 533.5,443.5C 515.282,449.512 497.616,448.178 480.5,439.5C 479.71,438.599 478.71,437.932 477.5,437.5C 471.612,433.954 466.278,429.621 461.5,424.5C 461.262,422.596 460.262,421.262 458.5,420.5C 458.573,418.973 457.906,417.973 456.5,417.5C 456.573,415.973 455.906,414.973 454.5,414.5C 452.831,410.496 451.164,406.496 449.5,402.5C 449.204,400.597 448.537,398.93 447.5,397.5C 443.378,375.988 448.045,356.655 461.5,339.5C 462.906,339.027 463.573,338.027 463.5,336.5C 486.903,315.023 513.236,310.689 542.5,323.5 Z M 710.5,324.5 C 710.973,325.906 711.973,326.573 713.5,326.5C 713.973,327.906 714.973,328.573 716.5,328.5C 717.585,330.587 719.251,331.92 721.5,332.5C 722.833,334.5 724.5,336.167 726.5,337.5C 726.427,339.027 727.094,340.027 728.5,340.5C 729.512,341.872 730.512,343.205 731.5,344.5C 732.026,346.23 733.026,347.564 734.5,348.5C 734.5,348.833 734.5,349.167 734.5,349.5C 734.932,350.71 735.599,351.71 736.5,352.5C 746.387,374.312 745.387,395.645 733.5,416.5C 732.094,416.973 731.427,417.973 731.5,419.5C 729.738,420.262 728.738,421.596 728.5,423.5C 727.5,423.833 726.833,424.5 726.5,425.5C 723.833,427.5 721.5,429.833 719.5,432.5C 717.596,432.738 716.262,433.738 715.5,435.5C 713.973,435.427 712.973,436.094 712.5,437.5C 709.515,438.326 706.849,439.659 704.5,441.5C 702.597,441.796 700.93,442.463 699.5,443.5C 682.124,449.2 665.124,448.2 648.5,440.5C 647.71,439.599 646.71,438.932 645.5,438.5C 645.167,438.5 644.833,438.5 644.5,438.5C 643.564,437.026 642.23,436.026 640.5,435.5C 639.205,434.512 637.872,433.512 636.5,432.5C 636.027,431.094 635.027,430.427 633.5,430.5C 632.167,428.5 630.5,426.833 628.5,425.5C 627.92,423.251 626.587,421.585 624.5,420.5C 624.573,418.973 623.906,417.973 622.5,417.5C 622.573,415.973 621.906,414.973 620.5,414.5C 607.294,386.784 610.294,361.118 629.5,337.5C 631.167,336.5 632.5,335.167 633.5,333.5C 657.118,314.294 682.784,311.294 710.5,324.5 Z M 520.5,482.5 C 529.101,484.481 537.435,487.481 545.5,491.5C 545.973,492.906 546.973,493.573 548.5,493.5C 548.973,494.906 549.973,495.573 551.5,495.5C 554.5,499.167 557.833,502.5 561.5,505.5C 562.921,508.009 564.588,510.343 566.5,512.5C 567.026,514.23 568.026,515.564 569.5,516.5C 580.136,538.801 579.47,560.801 567.5,582.5C 566.094,582.973 565.427,583.973 565.5,585.5C 563.738,586.262 562.738,587.596 562.5,589.5C 561.5,589.833 560.833,590.5 560.5,591.5C 557.833,593.5 555.5,595.833 553.5,598.5C 551.596,598.738 550.262,599.738 549.5,601.5C 547.973,601.427 546.973,602.094 546.5,603.5C 545.508,603.328 544.842,603.662 544.5,604.5C 542.973,604.427 541.973,605.094 541.5,606.5C 539.447,606.402 537.78,607.069 536.5,608.5C 533.603,609.129 530.936,610.129 528.5,611.5C 510.099,615.443 492.766,612.777 476.5,603.5C 475.564,602.026 474.23,601.026 472.5,600.5C 471.564,599.026 470.23,598.026 468.5,597.5C 466.167,594.5 463.5,591.833 460.5,589.5C 460.262,587.596 459.262,586.262 457.5,585.5C 457.573,583.973 456.906,582.973 455.5,582.5C 440.741,554.336 443.408,528.003 463.5,503.5C 465.167,502.5 466.5,501.167 467.5,499.5C 476.557,491.804 486.89,486.471 498.5,483.5C 505.799,482.65 513.132,482.317 520.5,482.5 Z M 545.5,657.5 C 545.973,658.906 546.973,659.573 548.5,659.5C 549.262,661.262 550.596,662.262 552.5,662.5C 552.833,663.5 553.5,664.167 554.5,664.5C 556.167,666.833 558.167,668.833 560.5,670.5C 560.833,671.5 561.5,672.167 562.5,672.5C 563.026,674.23 564.026,675.564 565.5,676.5C 565.833,677.167 566.167,677.833 566.5,678.5C 566.932,679.71 567.599,680.71 568.5,681.5C 580.368,703.95 580.035,726.283 567.5,748.5C 566.094,748.973 565.427,749.973 565.5,751.5C 563.738,752.262 562.738,753.596 562.5,755.5C 561.5,755.833 560.833,756.5 560.5,757.5C 557.5,759.833 554.833,762.5 552.5,765.5C 550.596,765.738 549.262,766.738 548.5,768.5C 547.508,768.328 546.842,768.662 546.5,769.5C 544.973,769.427 543.973,770.094 543.5,771.5C 541.847,771.66 540.514,772.326 539.5,773.5C 536.603,774.129 533.936,775.129 531.5,776.5C 527.017,777.373 522.683,778.373 518.5,779.5C 512.464,779.64 506.464,779.307 500.5,778.5C 492.79,776.819 485.457,774.153 478.5,770.5C 477.71,769.599 476.71,768.932 475.5,768.5C 472.319,766.408 469.319,764.075 466.5,761.5C 465.5,759.833 464.167,758.5 462.5,757.5C 462.167,756.5 461.5,755.833 460.5,755.5C 460.262,753.596 459.262,752.262 457.5,751.5C 457.573,749.973 456.906,748.973 455.5,748.5C 441.51,722.572 443.01,697.572 460,673.5C 484.499,647 512.999,641.666 545.5,657.5 Z"/></g>
<g><path style="opacity:0.431" fill="#cebfbe" d="M 376.5,323.5 C 378.027,323.427 379.027,324.094 379.5,325.5C 377.973,325.573 376.973,324.906 376.5,323.5 Z"/></g>
<g><path style="opacity:0.329" fill="#d4c7c7" d="M 542.5,323.5 C 544.027,323.427 545.027,324.094 545.5,325.5C 543.973,325.573 542.973,324.906 542.5,323.5 Z"/></g>
<g><path style="opacity:0.494" fill="#cababa" d="M 710.5,324.5 C 712.027,324.427 713.027,325.094 713.5,326.5C 711.973,326.573 710.973,325.906 710.5,324.5 Z"/></g>
<g><path style="opacity:0.835" fill="#c2b3b4" d="M 381.5,326.5 C 383.404,326.738 384.738,327.738 385.5,329.5C 383.596,329.262 382.262,328.262 381.5,326.5 Z"/></g>
<g><path style="opacity:0.808" fill="#c9babb" d="M 547.5,326.5 C 549.404,326.738 550.738,327.738 551.5,329.5C 549.596,329.262 548.262,328.262 547.5,326.5 Z"/></g>
<g><path style="opacity:0.522" fill="#cdbcbc" d="M 713.5,326.5 C 715.027,326.427 716.027,327.094 716.5,328.5C 714.973,328.573 713.973,327.906 713.5,326.5 Z"/></g>
<g><path style="opacity:0.851" fill="#c5b7b8" d="M 716.5,328.5 C 718.749,329.08 720.415,330.413 721.5,332.5C 719.251,331.92 717.585,330.587 716.5,328.5 Z"/></g>
<g><path style="opacity:0.835" fill="#cfc2c2" d="M 385.5,329.5 C 389.833,331.833 393.167,335.167 395.5,339.5C 391.833,336.5 388.5,333.167 385.5,329.5 Z"/></g>
<g><path style="opacity:0.792" fill="#ccbdbd" d="M 551.5,329.5 C 553.749,330.08 555.415,331.413 556.5,333.5C 554.251,332.92 552.585,331.587 551.5,329.5 Z"/></g>
<g><path style="opacity:0.09" fill="#e0d9da" d="M 633.5,333.5 C 632.5,335.167 631.167,336.5 629.5,337.5C 629.833,335.167 631.167,333.833 633.5,333.5 Z"/></g>
<g><path style="opacity:0.09" fill="#dcd2d2" d="M 463.5,336.5 C 463.573,338.027 462.906,339.027 461.5,339.5C 461.427,337.973 462.094,336.973 463.5,336.5 Z"/></g>
<g><path style="opacity:0.09" fill="#dcd2d2" d="M 559.5,336.5 C 560.906,336.973 561.573,337.973 561.5,339.5C 560.094,339.027 559.427,338.027 559.5,336.5 Z"/></g>
<g><path style="opacity:0.09" fill="#ddd5d5" d="M 296.5,337.5 C 296.573,339.027 295.906,340.027 294.5,340.5C 294.427,338.973 295.094,337.973 296.5,337.5 Z"/></g>
<g><path style="opacity:0.09" fill="#ddd4d5" d="M 726.5,337.5 C 727.906,337.973 728.573,338.973 728.5,340.5C 727.094,340.027 726.427,339.027 726.5,337.5 Z"/></g>
<g><path style="opacity:0.851" fill="#c4b9ba" d="M 731.5,344.5 C 733.446,345.035 734.446,346.368 734.5,348.5C 733.026,347.564 732.026,346.23 731.5,344.5 Z"/></g>
<g><path style="opacity:0.851" fill="#c0b7ba" d="M 400.5,346.5 C 402.048,346.821 402.715,347.821 402.5,349.5C 401.599,348.71 400.932,347.71 400.5,346.5 Z"/></g>
<g><path style="opacity:0.851" fill="#bab1b4" d="M 568.5,349.5 C 570.048,349.821 570.715,350.821 570.5,352.5C 569.599,351.71 568.932,350.71 568.5,349.5 Z"/></g>
<g><path style="opacity:0.835" fill="#c3b7b9" d="M 734.5,349.5 C 736.048,349.821 736.715,350.821 736.5,352.5C 735.599,351.71 734.932,350.71 734.5,349.5 Z"/></g>
<g><path style="opacity:0.835" fill="#c1b2b2" d="M 447.5,397.5 C 448.537,398.93 449.204,400.597 449.5,402.5C 447.787,401.365 447.12,399.698 447.5,397.5 Z"/></g>
<g><path style="opacity:0.835" fill="#c1b1b2" d="M 575.5,397.5 C 575.88,399.698 575.213,401.365 573.5,402.5C 573.796,400.597 574.463,398.93 575.5,397.5 Z"/></g>
<g><path style="opacity:0.506" fill="#cab9b9" d="M 402.5,414.5 C 402.573,416.027 401.906,417.027 400.5,417.5C 400.427,415.973 401.094,414.973 402.5,414.5 Z"/></g>
<g><path style="opacity:0.329" fill="#d4c7c7" d="M 454.5,414.5 C 455.906,414.973 456.573,415.973 456.5,417.5C 455.094,417.027 454.427,416.027 454.5,414.5 Z"/></g>
<g><path style="opacity:0.329" fill="#d4c7c7" d="M 568.5,414.5 C 568.573,416.027 567.906,417.027 566.5,417.5C 566.427,415.973 567.094,414.973 568.5,414.5 Z"/></g>
<g><path style="opacity:0.494" fill="#cabab9" d="M 620.5,414.5 C 621.906,414.973 622.573,415.973 622.5,417.5C 621.094,417.027 620.427,416.027 620.5,414.5 Z"/></g>
<g><path style="opacity:0.494" fill="#ccbbbb" d="M 289.5,416.5 C 290.906,416.973 291.573,417.973 291.5,419.5C 290.094,419.027 289.427,418.027 289.5,416.5 Z"/></g>
<g><path style="opacity:0.506" fill="#ccbbba" d="M 733.5,416.5 C 733.573,418.027 732.906,419.027 731.5,419.5C 731.427,417.973 732.094,416.973 733.5,416.5 Z"/></g>
<g><path style="opacity:0.537" fill="#cdbcbb" d="M 400.5,417.5 C 400.573,419.027 399.906,420.027 398.5,420.5C 398.427,418.973 399.094,417.973 400.5,417.5 Z"/></g>
<g><path style="opacity:0.373" fill="#d6c8c8" d="M 456.5,417.5 C 457.906,417.973 458.573,418.973 458.5,420.5C 457.094,420.027 456.427,419.027 456.5,417.5 Z"/></g>
<g><path style="opacity:0.373" fill="#d6c8c8" d="M 566.5,417.5 C 566.573,419.027 565.906,420.027 564.5,420.5C 564.427,418.973 565.094,417.973 566.5,417.5 Z"/></g>
<g><path style="opacity:0.522" fill="#cdbcbb" d="M 622.5,417.5 C 623.906,417.973 624.573,418.973 624.5,420.5C 623.094,420.027 622.427,419.027 622.5,417.5 Z"/></g>
<g><path style="opacity:0.835" fill="#c1b2b3" d="M 291.5,419.5 C 293.262,420.262 294.262,421.596 294.5,423.5C 292.738,422.738 291.738,421.404 291.5,419.5 Z"/></g>
<g><path style="opacity:0.835" fill="#c1b2b3" d="M 731.5,419.5 C 731.262,421.404 730.262,422.738 728.5,423.5C 728.738,421.596 729.738,420.262 731.5,419.5 Z"/></g>
<g><path style="opacity:0.808" fill="#c8b8b9" d="M 458.5,420.5 C 460.262,421.262 461.262,422.596 461.5,424.5C 459.738,423.738 458.738,422.404 458.5,420.5 Z"/></g>
<g><path style="opacity:0.808" fill="#c8b8b8" d="M 564.5,420.5 C 564.262,422.404 563.262,423.738 561.5,424.5C 561.738,422.596 562.738,421.262 564.5,420.5 Z"/></g>
<g><path style="opacity:0.851" fill="#c5b7b8" d="M 624.5,420.5 C 626.587,421.585 627.92,423.251 628.5,425.5C 626.413,424.415 625.08,422.749 624.5,420.5 Z"/></g>
<g><path style="opacity:0.58" fill="#cbbcbc" d="M 398.5,420.5 C 397.92,422.749 396.587,424.415 394.5,425.5C 395.08,423.251 396.413,421.585 398.5,420.5 Z"/></g>
<g><path style="opacity:0.835" fill="#b1a4a7" d="M 726.5,425.5 C 725.167,428.833 722.833,431.167 719.5,432.5C 721.5,429.833 723.833,427.5 726.5,425.5 Z"/></g>
<g><path style="opacity:0.09" fill="#ddd4d5" d="M 633.5,430.5 C 635.027,430.427 636.027,431.094 636.5,432.5C 634.973,432.573 633.973,431.906 633.5,430.5 Z"/></g>
<g><path style="opacity:0.553" fill="#cababa" d="M 389.5,430.5 C 388.415,432.587 386.749,433.92 384.5,434.5C 385.585,432.413 387.251,431.08 389.5,430.5 Z"/></g>
<g><path style="opacity:0.851" fill="#bdb4b7" d="M 302.5,431.5 C 304.23,432.026 305.564,433.026 306.5,434.5C 304.368,434.446 303.035,433.446 302.5,431.5 Z"/></g>
<g><path style="opacity:0.745" fill="#c2b1b1" d="M 719.5,432.5 C 718.738,434.262 717.404,435.262 715.5,435.5C 716.262,433.738 717.596,432.738 719.5,432.5 Z"/></g>
<g><path style="opacity:0.851" fill="#bcb1b5" d="M 306.5,434.5 C 308.23,435.026 309.564,436.026 310.5,437.5C 308.368,437.446 307.035,436.446 306.5,434.5 Z"/></g>
<g><path style="opacity:0.718" fill="#ccbbba" d="M 384.5,434.5 C 384.027,435.906 383.027,436.573 381.5,436.5C 381.973,435.094 382.973,434.427 384.5,434.5 Z"/></g>
<g><path style="opacity:0.851" fill="#c4b9ba" d="M 640.5,435.5 C 642.23,436.026 643.564,437.026 644.5,438.5C 642.368,438.446 641.035,437.446 640.5,435.5 Z"/></g>
<g><path style="opacity:0.792" fill="#c3b0b0" d="M 715.5,435.5 C 715.027,436.906 714.027,437.573 712.5,437.5C 712.973,436.094 713.973,435.427 715.5,435.5 Z"/></g>
<g><path style="opacity:0.761" fill="#c7b7b6" d="M 381.5,436.5 C 381.027,437.906 380.027,438.573 378.5,438.5C 378.973,437.094 379.973,436.427 381.5,436.5 Z"/></g>
<g><path style="opacity:0.718" fill="#cebfbe" d="M 547.5,436.5 C 547.027,437.906 546.027,438.573 544.5,438.5C 544.973,437.094 545.973,436.427 547.5,436.5 Z"/></g>
<g><path style="opacity:0.851" fill="#c2b8bb" d="M 311.5,437.5 C 312.71,437.932 313.71,438.599 314.5,439.5C 312.821,439.715 311.821,439.048 311.5,437.5 Z"/></g>
<g><path style="opacity:0.851" fill="#bdb5b8" d="M 477.5,437.5 C 478.71,437.932 479.71,438.599 480.5,439.5C 478.821,439.715 477.821,439.048 477.5,437.5 Z"/></g>
<g><path style="opacity:0.835" fill="#c2b7b9" d="M 645.5,438.5 C 646.71,438.932 647.71,439.599 648.5,440.5C 646.821,440.715 645.821,440.048 645.5,438.5 Z"/></g>
<g><path style="opacity:0.851" fill="#b4a5a7" d="M 372.5,441.5 C 370.967,443.245 368.967,444.245 366.5,444.5C 366.5,444.167 366.5,443.833 366.5,443.5C 368.421,442.637 370.421,441.971 372.5,441.5 Z"/></g>
<g><path style="opacity:0.851" fill="#beb0b1" d="M 538.5,441.5 C 537.365,443.213 535.698,443.88 533.5,443.5C 534.93,442.463 536.597,441.796 538.5,441.5 Z"/></g>
<g><path style="opacity:0.835" fill="#c2b4b5" d="M 704.5,441.5 C 703.365,443.213 701.698,443.88 699.5,443.5C 700.93,442.463 702.597,441.796 704.5,441.5 Z"/></g>
<g><path style="opacity:0.82" fill="#c6b6b7" d="M 366.5,443.5 C 366.5,443.833 366.5,444.167 366.5,444.5C 364.958,445.301 363.292,445.634 361.5,445.5C 362.93,444.463 364.597,443.796 366.5,443.5 Z"/></g>
<g><path style="opacity:0.42" fill="#c9b6b5" d="M 520.5,482.5 C 513.132,482.317 505.799,482.65 498.5,483.5C 499.263,482.732 500.263,482.232 501.5,482C 508.014,481.18 514.347,481.347 520.5,482.5 Z"/></g>
<g><path style="opacity:0.282" fill="#d7cbcb" d="M 545.5,491.5 C 547.027,491.427 548.027,492.094 548.5,493.5C 546.973,493.573 545.973,492.906 545.5,491.5 Z"/></g>
<g><path style="opacity:0.506" fill="#cebebd" d="M 548.5,493.5 C 550.027,493.427 551.027,494.094 551.5,495.5C 549.973,495.573 548.973,494.906 548.5,493.5 Z"/></g>
<g><path style="opacity:0.835" fill="#cec2c2" d="M 551.5,495.5 C 555.833,497.833 559.167,501.167 561.5,505.5C 557.833,502.5 554.5,499.167 551.5,495.5 Z"/></g>
<g><path style="opacity:0.09" fill="#e0d9da" d="M 467.5,499.5 C 466.5,501.167 465.167,502.5 463.5,503.5C 463.833,501.167 465.167,499.833 467.5,499.5 Z"/></g>
<g><path style="opacity:0.851" fill="#c4b8ba" d="M 566.5,512.5 C 568.446,513.035 569.446,514.368 569.5,516.5C 568.026,515.564 567.026,514.23 566.5,512.5 Z"/></g>
<g><path style="opacity:0.537" fill="#c8b7b7" d="M 455.5,582.5 C 456.906,582.973 457.573,583.973 457.5,585.5C 456.094,585.027 455.427,584.027 455.5,582.5 Z"/></g>
<g><path style="opacity:0.537" fill="#c8b7b7" d="M 567.5,582.5 C 567.573,584.027 566.906,585.027 565.5,585.5C 565.427,583.973 566.094,582.973 567.5,582.5 Z"/></g>
<g><path style="opacity:0.851" fill="#beafb1" d="M 457.5,585.5 C 459.262,586.262 460.262,587.596 460.5,589.5C 458.738,588.738 457.738,587.404 457.5,585.5 Z"/></g>
<g><path style="opacity:0.851" fill="#beafb1" d="M 565.5,585.5 C 565.262,587.404 564.262,588.738 562.5,589.5C 562.738,587.596 563.738,586.262 565.5,585.5 Z"/></g>
<g><path style="opacity:0.851" fill="#b0a4a8" d="M 560.5,591.5 C 559.167,594.833 556.833,597.167 553.5,598.5C 555.5,595.833 557.833,593.5 560.5,591.5 Z"/></g>
<g><path style="opacity:0.851" fill="#bfb5b9" d="M 468.5,597.5 C 470.23,598.026 471.564,599.026 472.5,600.5C 470.368,600.446 469.035,599.446 468.5,597.5 Z"/></g>
<g><path style="opacity:0.718" fill="#c4b4b4" d="M 553.5,598.5 C 552.738,600.262 551.404,601.262 549.5,601.5C 550.262,599.738 551.596,598.738 553.5,598.5 Z"/></g>
<g><path style="opacity:0.851" fill="#beb4b7" d="M 472.5,600.5 C 474.23,601.026 475.564,602.026 476.5,603.5C 474.368,603.446 473.035,602.446 472.5,600.5 Z"/></g>
<g><path style="opacity:0.761" fill="#c6b4b4" d="M 549.5,601.5 C 549.027,602.906 548.027,603.573 546.5,603.5C 546.973,602.094 547.973,601.427 549.5,601.5 Z"/></g>
<g><path style="opacity:0.745" fill="#c9b8b7" d="M 544.5,604.5 C 544.027,605.906 543.027,606.573 541.5,606.5C 541.973,605.094 542.973,604.427 544.5,604.5 Z"/></g>
<g><path style="opacity:0.851" fill="#b1a3a6" d="M 536.5,608.5 C 534.383,610.655 531.716,611.655 528.5,611.5C 530.936,610.129 533.603,609.129 536.5,608.5 Z"/></g>
<g><path style="opacity:0.463" fill="#ccbdbc" d="M 545.5,657.5 C 547.027,657.427 548.027,658.094 548.5,659.5C 546.973,659.573 545.973,658.906 545.5,657.5 Z"/></g>
<g><path style="opacity:0.808" fill="#c8b9b9" d="M 548.5,659.5 C 550.404,659.738 551.738,660.738 552.5,662.5C 550.596,662.262 549.262,661.262 548.5,659.5 Z"/></g>
<g><path style="opacity:0.745" fill="#cfc1c1" d="M 554.5,664.5 C 557.5,665.5 559.5,667.5 560.5,670.5C 558.167,668.833 556.167,666.833 554.5,664.5 Z"/></g>
<g><path style="opacity:0.851" fill="#bbb2b6" d="M 562.5,672.5 C 564.446,673.035 565.446,674.368 565.5,676.5C 564.026,675.564 563.026,674.23 562.5,672.5 Z"/></g>
<g><path style="opacity:0.851" fill="#beb6b9" d="M 566.5,678.5 C 568.048,678.821 568.715,679.821 568.5,681.5C 567.599,680.71 566.932,679.71 566.5,678.5 Z"/></g>
<g><path style="opacity:0.42" fill="#d0c0c0" d="M 455.5,748.5 C 456.906,748.973 457.573,749.973 457.5,751.5C 456.094,751.027 455.427,750.027 455.5,748.5 Z"/></g>
<g><path style="opacity:0.42" fill="#d0c0c0" d="M 567.5,748.5 C 567.573,750.027 566.906,751.027 565.5,751.5C 565.427,749.973 566.094,748.973 567.5,748.5 Z"/></g>
<g><path style="opacity:0.82" fill="#c6b7b7" d="M 457.5,751.5 C 459.262,752.262 460.262,753.596 460.5,755.5C 458.738,754.738 457.738,753.404 457.5,751.5 Z"/></g>
<g><path style="opacity:0.82" fill="#c5b6b7" d="M 565.5,751.5 C 565.262,753.404 564.262,754.738 562.5,755.5C 562.738,753.596 563.738,752.262 565.5,751.5 Z"/></g>
<g><path style="opacity:0.808" fill="#c7babb" d="M 462.5,757.5 C 464.167,758.5 465.5,759.833 466.5,761.5C 464.167,761.167 462.833,759.833 462.5,757.5 Z"/></g>
<g><path style="opacity:0.835" fill="#b7a8aa" d="M 560.5,757.5 C 558.833,761.167 556.167,763.833 552.5,765.5C 554.833,762.5 557.5,759.833 560.5,757.5 Z"/></g>
<g><path style="opacity:0.776" fill="#bcabac" d="M 552.5,765.5 C 551.738,767.262 550.404,768.262 548.5,768.5C 549.262,766.738 550.596,765.738 552.5,765.5 Z"/></g>
<g><path style="opacity:0.851" fill="#c1b8ba" d="M 475.5,768.5 C 476.71,768.932 477.71,769.599 478.5,770.5C 476.821,770.715 475.821,770.048 475.5,768.5 Z"/></g>
<g><path style="opacity:0.776" fill="#c5b4b4" d="M 546.5,769.5 C 546.027,770.906 545.027,771.573 543.5,771.5C 543.973,770.094 544.973,769.427 546.5,769.5 Z"/></g>
<g><path style="opacity:0.835" fill="#b7abae" d="M 539.5,773.5 C 537.383,775.655 534.716,776.655 531.5,776.5C 533.936,775.129 536.603,774.129 539.5,773.5 Z"/></g>
<g><path style="opacity:0.671" fill="#b39d9d" d="M 500.5,778.5 C 506.464,779.307 512.464,779.64 518.5,779.5C 516.19,780.164 513.69,780.497 511,780.5C 507.195,780.696 503.695,780.03 500.5,778.5 Z"/></g>
</svg>
