<?xml version="1.0" encoding="UTF-8"?>
<svg xmlns="http://www.w3.org/2000/svg" xmlns:xlink="http://www.w3.org/1999/xlink" width="64px" height="64px" viewBox="0 0 64 64" version="1.1">
<g id="surface1">
<path style=" stroke:none;fill-rule:evenodd;fill:rgb(91.764706%,32.156863%,12.54902%);fill-opacity:1;" d="M 56 32 C 56 45.253906 45.253906 56 32 56 C 18.746094 56 8 45.253906 8 32 C 8 18.746094 18.746094 8 32 8 C 45.253906 8 56 18.746094 56 32 Z M 56 32 "/>
<path style=" stroke:none;fill-rule:evenodd;fill:rgb(100%,100%,100%);fill-opacity:1;" d="M 25.753906 23.882812 C 25.753906 26.167969 23.902344 28.019531 21.617188 28.019531 C 19.332031 28.019531 17.480469 26.167969 17.480469 23.882812 C 17.480469 21.597656 19.332031 19.746094 21.617188 19.746094 C 23.902344 19.746094 25.753906 21.597656 25.753906 23.882812 Z M 25.753906 23.882812 "/>
<path style=" stroke:none;fill-rule:evenodd;fill:rgb(100%,100%,100%);fill-opacity:1;" d="M 36.136719 23.882812 C 36.136719 26.167969 34.285156 28.019531 32 28.019531 C 29.714844 28.019531 27.863281 26.167969 27.863281 23.882812 C 27.863281 21.597656 29.714844 19.746094 32 19.746094 C 34.285156 19.746094 36.136719 21.597656 36.136719 23.882812 Z M 36.136719 23.882812 "/>
<path style=" stroke:none;fill-rule:evenodd;fill:rgb(100%,100%,100%);fill-opacity:1;" d="M 36.136719 34.265625 C 36.136719 36.550781 34.285156 38.402344 32 38.402344 C 29.714844 38.402344 27.863281 36.550781 27.863281 34.265625 C 27.863281 31.980469 29.714844 30.128906 32 30.128906 C 34.285156 30.128906 36.136719 31.980469 36.136719 34.265625 Z M 36.136719 34.265625 "/>
<path style=" stroke:none;fill-rule:evenodd;fill:rgb(100%,100%,100%);fill-opacity:1;" d="M 36.136719 44.652344 C 36.136719 46.9375 34.285156 48.789062 32 48.789062 C 29.714844 48.789062 27.863281 46.9375 27.863281 44.652344 C 27.863281 42.367188 29.714844 40.511719 32 40.511719 C 34.285156 40.511719 36.136719 42.367188 36.136719 44.652344 Z M 36.136719 44.652344 "/>
<path style=" stroke:none;fill-rule:evenodd;fill:rgb(100%,100%,100%);fill-opacity:1;" d="M 46.519531 23.882812 C 46.519531 26.167969 44.667969 28.019531 42.382812 28.019531 C 40.097656 28.019531 38.246094 26.167969 38.246094 23.882812 C 38.246094 21.597656 40.097656 19.746094 42.382812 19.746094 C 44.667969 19.746094 46.519531 21.597656 46.519531 23.882812 Z M 46.519531 23.882812 "/>
</g>
</svg>
